<svg width="16" height="16" viewBox="0 0 16 16" fill="none" xmlns="http://www.w3.org/2000/svg">
<g clip-path="url(#clip0_4505_309)">
<path d="M14.7875 9.91871C13.8623 9.91871 12.9539 9.77402 12.0931 9.48954C11.6713 9.34567 11.1528 9.47766 10.8953 9.74206L9.19622 11.0247C7.22575 9.97286 6.01198 8.75949 4.97451 6.80382L6.21941 5.14899C6.54284 4.82599 6.65885 4.35416 6.51986 3.91146C6.23417 3.04611 6.08904 2.13814 6.08904 1.21259C6.08908 0.543961 5.54511 0 4.87653 0H2.10143C1.43285 0 0.888885 0.543961 0.888885 1.21255C0.888885 8.87632 7.12371 15.1111 14.7875 15.1111C15.4561 15.1111 16 14.5672 16 13.8986V11.1312C16 10.4627 15.456 9.91871 14.7875 9.91871Z" fill="#3A3A3A"/>
</g>
<defs>
<clipPath id="clip0_4505_309">
<rect width="15.1111" height="15.1111" fill="white" transform="translate(0.888885)"/>
</clipPath>
</defs>
</svg>
